<?xml version="1.0" encoding="UTF-8" standalone="no"?><!DOCTYPE svg PUBLIC "-//W3C//DTD SVG 1.1//EN" "http://www.w3.org/Graphics/SVG/1.1/DTD/svg11.dtd"><svg width="100%" height="100%" viewBox="0 0 304 304" version="1.1" xmlns="http://www.w3.org/2000/svg" xmlns:xlink="http://www.w3.org/1999/xlink" xml:space="preserve" xmlns:serif="http://www.serif.com/" style="fill-rule:evenodd;clip-rule:evenodd;stroke-linecap:round;stroke-linejoin:round;stroke-miterlimit:1.5;"><g><g><path d="M151.598,290.028l0,-276.862" style="fill:none;stroke:#1f211f;stroke-width:1.24px;"/></g><g><path d="M289.984,151.596l-276.772,0" style="fill:none;stroke:#1f211f;stroke-width:1.24px;"/></g><g><path d="M115.781,285.311l71.633,-267.428" style="fill:none;stroke:#1f211f;stroke-width:1.23px;"/></g><g><path d="M285.268,187.425l-267.341,-71.657" style="fill:none;stroke:#1f211f;stroke-width:1.24px;"/></g><g><path d="M82.405,271.482l138.386,-239.769" style="fill:none;stroke:#1f211f;stroke-width:1.23px;"/></g><g><path d="M271.443,220.812l-239.691,-138.431" style="fill:none;stroke:#1f211f;stroke-width:1.24px;"/></g><g><path d="M53.744,249.483l195.707,-195.771" style="fill:none;stroke:#1f211f;stroke-width:1.23px;"/></g><g><path d="M249.452,249.482l-195.707,-195.771" style="fill:none;stroke:#1f211f;stroke-width:1.24px;"/></g><g><path d="M31.752,220.813l239.691,-138.431" style="fill:none;stroke:#1f211f;stroke-width:1.23px;"/></g><g><path d="M220.791,271.481l-138.386,-239.769" style="fill:none;stroke:#1f211f;stroke-width:1.24px;"/></g><g><path d="M17.928,187.426l267.341,-71.657" style="fill:none;stroke:#1f211f;stroke-width:1.23px;"/></g><g><path d="M187.415,285.311l-71.634,-267.428" style="fill:none;stroke:#1f211f;stroke-width:1.24px;"/></g><g><path d="M13.212,151.597l276.771,0" style="fill:none;stroke:#1f211f;stroke-width:1.24px;"/></g><g><path d="M151.598,290.028l0,-276.862" style="fill:none;stroke:#1f211f;stroke-width:1.24px;"/></g><g><path d="M17.927,115.769l267.341,71.657" style="fill:none;stroke:#1f211f;stroke-width:1.24px;"/></g><g><path d="M115.782,285.311l71.633,-267.428" style="fill:none;stroke:#1f211f;stroke-width:1.23px;"/></g><path d="M151.597,288.44c-75.701,0 -137.053,-61.258 -137.053,-136.843c0,-66.989 48.204,-122.743 111.854,-134.546l0.485,3.928c-1.724,0.323 -3.449,0.683 -5.154,1.063c-0.665,0.171 -1.347,0.323 -2.012,0.493c-7.346,1.784 -14.44,4.175 -21.229,7.116c-0.629,0.285 -1.275,0.55 -1.904,0.835c-7.633,3.454 -14.871,7.572 -21.66,12.335c-0.574,0.399 -1.131,0.797 -1.688,1.196c-6.483,4.687 -12.518,9.944 -18.05,15.694c-0.485,0.493 -0.952,0.987 -1.419,1.499c-5.675,6.073 -10.794,12.677 -15.266,19.717c-0.36,0.588 -0.737,1.177 -1.096,1.784c-3.879,6.338 -7.256,13.037 -10.058,20.04c-0.252,0.626 -0.503,1.271 -0.755,1.917c-2.927,7.705 -5.19,15.751 -6.663,24.082c-0.126,0.664 -0.233,1.347 -0.341,2.031c-1.131,6.984 -1.724,14.138 -1.724,21.444c0,0.835 0.018,1.651 0.036,2.467c0,0.702 0.018,1.385 0.054,2.068c0.27,8.502 1.347,16.795 3.161,24.822c0.144,0.683 0.305,1.347 0.467,2.031c1.778,7.363 4.167,14.517 7.13,21.349c0.27,0.645 0.539,1.271 0.826,1.917c3.449,7.667 7.615,14.954 12.392,21.786c0.395,0.569 0.79,1.12 1.204,1.689c4.723,6.509 10.004,12.601 15.805,18.161c0.503,0.474 1.006,0.949 1.508,1.423c6.124,5.693 12.788,10.836 19.9,15.314c0.592,0.361 1.186,0.721 1.778,1.101c6.412,3.89 13.183,7.268 20.241,10.058c0.646,0.266 1.293,0.512 1.94,0.759c7.776,2.922 15.894,5.162 24.264,6.604c0.682,0.133 1.365,0.247 2.048,0.342c6.842,1.082 13.829,1.632 20.977,1.632c1.041,0 2.083,0 3.107,-0.038c0.7,-0.019 1.383,-0.038 2.083,-0.057c8.549,-0.323 16.882,-1.461 24.946,-3.302c0.683,-0.152 1.347,-0.323 2.03,-0.493c7.4,-1.822 14.548,-4.27 21.409,-7.249c0.646,-0.285 1.257,-0.569 1.885,-0.854c7.687,-3.511 14.979,-7.705 21.804,-12.525c0.556,-0.417 1.113,-0.816 1.67,-1.215c6.501,-4.763 12.572,-10.096 18.104,-15.922c0.467,-0.493 0.934,-1.006 1.419,-1.518c5.657,-6.149 10.758,-12.828 15.194,-19.964c0.359,-0.588 0.718,-1.177 1.078,-1.765c3.861,-6.414 7.184,-13.17 9.931,-20.229c0.252,-0.645 0.503,-1.29 0.737,-1.936c2.874,-7.743 5.064,-15.846 6.465,-24.196c0.108,-0.664 0.216,-1.366 0.323,-2.05c1.006,-6.585 1.526,-13.322 1.526,-20.21c0,-1.233 -0.018,-2.486 -0.054,-3.738c-0.018,-0.683 -0.036,-1.366 -0.072,-2.05c-0.359,-8.483 -1.508,-16.757 -3.394,-24.765c-0.162,-0.664 -0.323,-1.347 -0.485,-2.012c-1.85,-7.344 -4.292,-14.422 -7.292,-21.235c-0.287,-0.626 -0.556,-1.252 -0.844,-1.879c-3.502,-7.61 -7.705,-14.84 -12.518,-21.596c-0.395,-0.55 -0.808,-1.12 -1.221,-1.67c-4.723,-6.452 -10.022,-12.43 -15.805,-17.914c-0.503,-0.493 -1.024,-0.968 -1.526,-1.423c-6.124,-5.617 -12.752,-10.684 -19.846,-15.087c-0.575,-0.361 -1.167,-0.721 -1.76,-1.082c-6.376,-3.833 -13.093,-7.154 -20.098,-9.887c-0.646,-0.266 -1.293,-0.512 -1.94,-0.759c-7.705,-2.866 -15.751,-5.067 -24.066,-6.49c-0.664,-0.114 -1.347,-0.228 -2.029,-0.323c-6.771,-1.063 -13.703,-1.613 -20.762,-1.613c-1.042,0 -2.066,0.019 -3.089,0.038c-0.629,0.019 -1.257,0.038 -1.868,0.057l-0.467,-3.947c1.796,-0.057 3.61,-0.095 5.424,-0.095c75.683,0 137.052,61.258 137.052,136.843c0,75.585 -61.369,136.843 -137.052,136.843Z" style="fill:url(#_Linear1);"/><path d="M151.615,303.194c-83.855,0 -151.834,-67.899 -151.834,-151.607c0,-74.541 53.898,-136.52 124.894,-149.216l1.742,14.669c-63.65,11.804 -111.854,67.558 -111.854,134.546c0,75.585 61.351,136.843 137.053,136.843c75.683,0 137.052,-61.258 137.052,-136.843c0,-75.585 -61.369,-136.843 -137.052,-136.843c-1.814,0 -3.628,0.038 -5.424,0.095l-1.706,-14.669c2.371,-0.114 4.742,-0.171 7.13,-0.171c83.837,0 151.797,67.862 151.797,151.588c0,83.707 -67.96,151.607 -151.797,151.607Zm95.96,-42.262c-0.018,0.019 -0.036,0.019 -0.036,0.019c17.259,-14.347 42.385,-49.454 48.402,-93.253c0.827,-6.092 1.294,-12.354 1.311,-18.73l0,-1.025c-0.072,-21.14 -5.011,-43.761 -17.403,-66.666c-22.647,-41.882 -56.627,-61.144 -83.927,-69.968c-0.107,-0.038 -0.197,-0.076 -0.305,-0.095c-0.107,-0.038 -0.215,-0.076 -0.305,-0.114c-18.606,-6.395 -33.98,-7.268 -40.445,-7.306l-0.952,0c-1.042,0 -1.76,0.019 -2.101,0.038c-0.162,0.019 -0.252,0.019 -0.252,0.019c0,0 0.36,-0.019 1.042,-0.019c4.292,0 21.552,0.474 43.014,7.382c27.012,9.356 60.705,30.401 83.765,77.426c10.004,20.362 13.865,40.307 13.865,58.999c-0.036,63.155 -44.343,111.831 -45.672,113.292Z" style="fill:url(#_Linear2);"/><path d="M151.597,0c83.855,0 151.815,67.899 151.815,151.607c0,74.541 -53.898,136.52 -124.894,149.216l-1.742,-14.669c63.65,-11.804 111.854,-67.558 111.854,-134.546c0,-75.585 -61.333,-133.188 -137.034,-133.188c-75.683,0 -137.07,57.603 -137.07,133.188c0,75.585 61.369,136.843 137.052,136.843c1.814,0 3.628,-0.038 5.424,-0.095l1.706,14.669c-2.371,0.114 -4.742,0.171 -7.13,0.171c-83.837,0 -151.797,-67.862 -151.797,-151.588c0,-83.707 67.978,-151.607 151.815,-151.607Zm-95.978,42.262c0.018,-0.019 0.036,-0.019 0.036,-0.019c-17.259,14.347 -42.385,49.454 -48.402,93.253c-0.827,6.092 -1.294,12.354 -1.311,18.73l0,1.025c0.072,21.14 5.011,43.761 17.403,66.666c22.647,41.882 56.627,61.144 83.927,69.968c0.107,0.038 0.197,0.076 0.305,0.095c0.107,0.038 0.215,0.076 0.305,0.114c18.606,6.395 33.98,7.268 40.445,7.306l0.952,0c1.042,0 1.76,-0.019 2.101,-0.038c0.162,-0.019 0.252,-0.019 0.252,-0.019c0,0 -0.36,0.019 -1.042,0.019c-4.292,0 -21.552,-0.474 -43.014,-7.382c-27.012,-9.356 -60.705,-30.401 -83.765,-77.426c-10.004,-20.362 -13.865,-40.307 -13.865,-58.999c0.036,-63.155 44.343,-111.831 45.672,-113.292Z" style="fill:url(#_Linear3);"/></g><defs><linearGradient id="_Linear1" x1="0" y1="0" x2="1" y2="0.049" gradientUnits="userSpaceOnUse" gradientTransform="matrix(-115.324568,-207.247073,-196.140543,121.854864,232.25544,7.253043)"><stop offset="0" style="stop-color:#424443;stop-opacity:1"/><stop offset="0.43" style="stop-color:#424443;stop-opacity:1"/><stop offset="0.63" style="stop-color:#4b4d4c;stop-opacity:1"/><stop offset="0.82" style="stop-color:#636462;stop-opacity:1"/><stop offset="1" style="stop-color:#8a8c8b;stop-opacity:1"/></linearGradient><linearGradient id="_Linear2" x1="0" y1="0" x2="1" y2="0.055" gradientUnits="userSpaceOnUse" gradientTransform="matrix(401.812413,477.518426,451.927846,-424.565188,14.742418,314.233382)"><stop offset="0" style="stop-color:#1f211f;stop-opacity:1"/><stop offset="0.43" style="stop-color:#1f2220;stop-opacity:1"/><stop offset="0.63" style="stop-color:#30312f;stop-opacity:1"/><stop offset="0.83" style="stop-color:#555553;stop-opacity:1"/><stop offset="0.91" style="stop-color:#6b6c6b;stop-opacity:1"/><stop offset="1" style="stop-color:#8a8c8b;stop-opacity:1"/></linearGradient><linearGradient id="_Linear3" x1="0" y1="0" x2="1" y2="0.055" gradientUnits="userSpaceOnUse" gradientTransform="matrix(-401.812413,-477.518426,-451.927846,424.565188,288.452026,-11.038938)"><stop offset="0" style="stop-color:#1f211f;stop-opacity:1"/><stop offset="0.43" style="stop-color:#1f2220;stop-opacity:1"/><stop offset="0.63" style="stop-color:#30312f;stop-opacity:1"/><stop offset="0.83" style="stop-color:#555553;stop-opacity:1"/><stop offset="0.91" style="stop-color:#6b6c6b;stop-opacity:1"/><stop offset="1" style="stop-color:#8a8c8b;stop-opacity:1"/></linearGradient></defs></svg>