<?xml version="1.0" encoding="UTF-8"?>
<svg id="Layer_1" xmlns="http://www.w3.org/2000/svg" xmlns:serif="http://www.serif.com/" version="1.1" viewBox="0 0 1828.91 255.92">
  <!-- Generator: Adobe Illustrator 30.3.0, SVG Export Plug-In . SVG Version: 2.1.3 Build 182)  -->
  <defs>
    <style>
      .st0 {
        isolation: isolate;
      }

      .st1, .st2 {
        fill: #d9cbbf;
      }

      .st2 {
        fill-rule: evenodd;
      }
    </style>
  </defs>
  <path class="st2" d="M1419.5,232.68V72.98h19.68v52.33c2.83-2.97,5.7-5.1,8.6-6.37,2.9-1.26,6.6-1.9,11.08-1.9,10.58,0,18.25,3.88,23.02,11.62,4.03,7.01,6.04,17.3,6.04,30.87v28.86c0,17.29-2.76,29.59-8.28,36.9-4.77,6.41-12.06,9.61-21.91,9.61-4.92,0-8.95-.75-12.08-2.24-3.13-1.49-6.34-4.17-9.61-8.05l-1.35,8.05h-15.21,0ZM1439.18,185.48c.14,12.23,1.56,20.89,4.25,25.95,2.39,4.33,6.03,6.49,10.95,6.49,9.25,0,13.86-9.09,13.86-27.28v-32.21c0-16.41-4.61-24.6-13.86-24.6-10.14,0-15.2,10.81-15.2,32.43v19.23h0Z"/>
  <path class="st2" d="M1511.17,72.31h19.68v24.84h-19.68v-24.84ZM1511.17,119.05h19.68v113.62h-19.68v-113.62Z"/>
  <path class="st2" d="M1548.96,196.44h18.34c.14,6.72.82,11.35,2.01,13.87,2.53,5.52,7.45,8.27,14.76,8.27,10.58,0,15.87-5.95,15.87-17.89,0-5.96-1.56-10.14-4.68-12.53-1.95-1.49-6.64-3.35-14.09-5.59-11.04-3.28-18.34-6.84-21.92-10.73-4.92-5.22-7.37-12.98-7.37-23.27,0-10.87,2.98-19.01,8.94-24.37,5.22-4.78,12.45-7.15,21.69-7.15,14.31,0,23.93,5.14,28.84,15.43,2.08,4.47,3.21,11.26,3.36,20.35h-18.11c0-12.98-4.48-19.46-13.42-19.46s-12.97,5.22-12.97,15.66c0,6.56,2.32,11.33,6.93,14.31,2.09,1.34,8.12,3.43,18.12,6.27,8.48,2.39,14.45,5.93,17.88,10.62,3.43,4.7,5.15,11.61,5.15,20.69,0,13.12-3.8,22.3-11.41,27.52-6.27,4.32-14.09,6.49-23.48,6.49-8.05,0-14.9-1.79-20.57-5.37-5.07-3.13-8.72-7.3-10.95-12.53-1.8-4.47-2.76-11.33-2.91-20.58h0Z"/>
  <path class="st2" d="M1641.31,135.16h-10.06v-16.11h10.06l1.12-34.89h18.56v34.89h15.66v16.11h-15.66v63.3c0,7.01.79,11.71,2.35,14.09,1.57,2.39,4.74,3.58,9.51,3.58h4.02v16.55h-5.81c-7.16,0-12.64-.59-16.45-1.79-3.79-1.19-6.66-3.2-8.6-6.03-3.13-4.62-4.7-14.01-4.7-28.19v-61.5Z"/>
  <path class="st2" d="M1696.09,232.68v-113.62h14.99l2.46,9.41c2.37-4.04,4.99-6.94,7.81-8.72,2.83-1.8,6.41-2.69,10.73-2.69,5.52,0,10.95,2.08,16.32,6.26l-8.72,16.32c-3.88-3.88-7.53-5.81-10.96-5.81-4.61,0-7.94,3.39-9.94,10.17-2.01,6.79-3.02,17.93-3.02,33.44v55.24h-19.68,0Z"/>
  <path class="st2" d="M1759.59,190.64v-29.53c0-16.69,3.05-28.4,9.17-35.12,5.51-5.96,14.01-8.95,25.49-8.95,12.96,0,22.13,3.96,27.5,11.86,4.77,6.85,7.15,17.6,7.15,32.21v29.53c0,16.7-3.13,28.4-9.39,35.11-5.37,6.12-13.79,9.17-25.27,9.17-13.12,0-22.37-3.95-27.73-11.85-4.62-7.01-6.93-17.82-6.93-32.43ZM1779.28,192.43c.15,9.85,1.27,16.66,3.35,20.46,2.08,3.8,5.96,5.7,11.63,5.7s9.39-1.97,11.63-5.93c2.24-3.94,3.35-10.7,3.35-20.23v-32.89c0-9.7-1.12-16.47-3.35-20.36-2.24-3.87-6.12-5.81-11.63-5.81s-9.39,1.94-11.63,5.81c-2.24,3.88-3.35,10.66-3.35,20.36v32.89Z"/>
  <rect class="st1" x="1323.13" width="15.57" height="255.92"/>
  <path class="st2" d="M62.81,234.39c-14.24,0-25.33-4.04-33.28-12.13-7.95-8.1-11.93-20.88-11.93-38.35v-85.85H0v-21.63h17.6V31.92h26.07v44.52h47.96v21.63h-47.96v73.64c0,7.86.14,13.91.42,18.17.27,4.25,1.33,8.23,3.19,11.93,1.57,3.24,4.11,5.66,7.62,7.28,3.51,1.62,8.28,2.43,14.29,2.43,4.25,0,8.36-.63,12.34-1.87,3.97-1.25,6.84-2.29,8.59-3.12h1.52v23.44c-4.89,1.38-9.86,2.47-14.9,3.25-5.03.78-9.69,1.18-13.93,1.18h0Z"/>
  <path class="st2" d="M232.64,231.34h-26.07v-88.2c0-7.12-.35-13.75-1.04-19.9-.7-6.14-2.02-11.07-3.95-14.77-2.13-3.88-5.08-6.77-8.87-8.66-3.79-1.9-8.97-2.85-15.53-2.85s-13.14,1.74-20.04,5.2c-6.89,3.47-13.61,7.98-20.17,13.52v115.66h-26.07V15.56h26.07v78.08c7.76-6.93,15.43-12.25,23.01-15.94,7.57-3.7,15.57-5.55,23.99-5.55,15.25,0,27.18,5.02,35.77,15.04,8.59,10.04,12.89,24.57,12.89,43.62v100.54h0Z"/>
  <path class="st2" d="M336.48,234.94c-24.68,0-43.83-6.95-57.47-20.87-13.63-13.92-20.45-33.67-20.45-59.28s6.6-45.33,19.82-60.26c13.23-14.93,30.5-22.4,51.85-22.4,9.61,0,18.12,1.4,25.52,4.16,7.39,2.78,13.86,7.13,19.41,13.04,5.55,5.91,9.8,13.15,12.75,21.7,2.96,8.56,4.44,19.03,4.44,31.41v14.15h-107.32c0,18.03,4.53,31.81,13.59,41.33,9.06,9.53,21.58,14.28,37.57,14.28,5.73,0,11.35-.65,16.85-1.94,5.49-1.29,10.47-2.95,14.9-5,4.71-2.12,8.69-4.18,11.93-6.17,3.23-1.98,5.91-3.85,8.04-5.61h1.53v28.43c-3.04,1.21-6.84,2.71-11.37,4.51-4.53,1.8-8.6,3.21-12.2,4.23-5.09,1.39-9.69,2.45-13.8,3.19-4.11.74-9.32,1.11-15.6,1.11h0ZM366.98,136.63c-.18-7.03-1.01-13.09-2.49-18.17-1.48-5.08-3.61-9.38-6.38-12.9-3.05-3.88-6.95-6.84-11.72-8.87-4.76-2.03-10.65-3.05-17.67-3.05s-12.83,1.04-17.68,3.12c-4.85,2.08-9.27,5.11-13.24,9.08-3.88,4.07-6.84,8.58-8.87,13.53-2.04,4.94-3.32,10.69-3.89,17.27h81.94Z"/>
  <path class="st2" d="M669.37,231.34h-35.63l-65.44-82.1h-31.34v82.1h-27.45V24.86h53.24c11.83,0,21.74.64,29.74,1.94,8,1.29,15.59,4.3,22.81,9.01,7.21,4.62,12.92,10.58,17.12,17.89,4.21,7.3,6.31,16.36,6.31,27.18,0,15.16-3.84,27.83-11.51,37.99-7.67,10.17-18.12,17.71-31.34,22.61l73.48,89.86ZM610.03,82.95c0-6-1.06-11.34-3.19-16.01-2.13-4.66-5.41-8.48-9.84-11.44-3.89-2.58-8.42-4.41-13.59-5.48-5.17-1.06-11.6-1.59-19.28-1.59h-27.17v77.94h24.12c7.85,0,14.93-.69,21.22-2.08,6.28-1.39,11.64-4.25,16.08-8.6,3.97-3.88,6.91-8.5,8.8-13.86,1.9-5.36,2.84-11.65,2.84-18.87h0Z"/>
  <path class="st2" d="M805.94,153.96c0,26.07-6.29,46.2-18.86,60.39-12.57,14.2-29.3,21.29-50.19,21.29s-38.48-7.32-50.81-21.97c-12.34-14.66-18.51-34.56-18.51-59.71s6.35-45.99,19.07-60.33c12.7-14.33,29.46-21.49,50.25-21.49s37.62,7.14,50.19,21.43c12.58,14.28,18.86,34.41,18.86,60.39h0ZM779.04,153.96c0-20.06-3.65-34.97-10.95-44.73-7.31-9.75-17.7-14.63-31.2-14.63s-24.05,4.87-31.4,14.63c-7.35,9.76-11.02,24.67-11.02,44.73s3.67,34.14,11.02,44.17c7.35,10.03,17.81,15.05,31.4,15.05s23.78-4.92,31.13-14.77c7.35-9.85,11.02-24.66,11.02-44.45h0Z"/>
  <path class="st2" d="M1101.96,231.34h-26.06v-15.8c-4.07,3.42-7.58,6.23-10.54,8.45-2.96,2.22-6.43,4.26-10.4,6.1-3.7,1.75-7.53,3.12-11.51,4.09-3.98.97-8.6,1.45-13.87,1.45-8.41,0-16.2-1.76-23.36-5.27-7.16-3.51-13.24-8.64-18.23-15.4-5.08-6.84-9.01-15.27-11.78-25.3-2.77-10.04-4.16-21.56-4.16-34.6s1.75-25.36,5.26-35.3c3.52-9.93,8.37-18.61,14.56-26,5.64-6.74,12.45-12.04,20.45-15.88,7.99-3.84,16.38-5.76,25.17-5.76,7.75,0,14.51.85,20.23,2.57,5.73,1.71,11.79,4.37,18.17,7.97V15.56h26.06v215.78h0ZM1075.89,193.62v-89.3c-6.47-3.15-12.27-5.31-17.4-6.52-5.13-1.2-10.7-1.81-16.71-1.81-13.4,0-23.89,5.02-31.47,15.05-7.58,10.04-11.37,24.53-11.37,43.48s2.91,32.15,8.73,41.82c5.82,9.66,15.16,14.49,28.01,14.49,6.84,0,13.73-1.55,20.66-4.65,6.93-3.09,13.45-7.28,19.55-12.55h0Z"/>
  <path class="st2" d="M1181.54,235.09c-10.35,0-20.04-1.39-29.05-4.16-9.01-2.77-16.48-5.74-22.39-8.87v-29.27h1.38c2.22,1.76,4.83,3.7,7.84,5.82,3,2.13,7,4.35,12,6.66,4.43,2.04,9.31,3.84,14.63,5.41,5.31,1.57,10.83,2.36,16.56,2.36,4.16,0,8.6-.48,13.31-1.45,4.71-.98,8.23-2.2,10.54-3.68,3.24-2.13,5.57-4.39,7.01-6.79,1.43-2.4,2.15-6.01,2.15-10.82,0-6.19-1.69-10.86-5.06-14-3.38-3.14-9.36-5.78-17.96-7.91-3.32-.84-7.67-1.8-13.03-2.91-5.36-1.11-10.31-2.3-14.83-3.61-11.83-3.42-20.43-8.71-25.79-15.88-5.36-7.17-8.04-15.83-8.04-26,0-13.95,5.27-25.33,15.81-34.12,10.54-8.78,24.54-13.17,42.01-13.17,8.6,0,17.23,1.06,25.92,3.19,8.69,2.12,15.99,4.8,21.91,8.04v27.87h-1.39c-6.65-5.27-14.07-9.43-22.25-12.48-8.18-3.05-16.43-4.58-24.74-4.58s-15.86,1.81-21.77,5.41c-5.92,3.61-8.87,9.07-8.87,16.37,0,6.48,1.76,11.31,5.27,14.5,3.51,3.19,9.15,5.8,16.91,7.83,3.88,1.02,8.2,2.02,12.96,2.98,4.76.97,9.78,2.1,15.04,3.4,11.46,2.87,20.08,7.63,25.86,14.28,5.77,6.66,8.66,15.73,8.66,27.18,0,6.66-1.32,12.97-3.95,18.93-2.64,5.97-6.49,11.08-11.58,15.33-5.54,4.62-11.8,8.13-18.78,10.53-6.98,2.41-15.73,3.61-26.27,3.61h0Z"/>
  <g class="st0">
    <path class="st1" d="M839.58,95.71c6.79-7.57,14.65-13.25,23.59-17.04,8.93-3.78,17.87-5.68,26.8-5.68s17.29,1.41,23.99,4.22c6.7,2.81,12.2,6.6,16.48,11.36,4.29,4.76,7.46,10.23,9.52,16.39,2.05,6.17,3.08,12.61,3.08,19.32v78.56c0,5.41.09,10.39.27,14.93.18,4.54.44,8.88.8,12.99h-21.44c-.54-7.79-.8-15.58-.8-23.37h-.54c-5.36,9.96-11.71,16.99-19.03,21.1-7.33,4.11-15.81,6.17-25.46,6.17-5.9,0-11.53-.97-16.89-2.92-5.36-1.95-10.05-4.87-14.07-8.76s-7.2-8.71-9.52-14.45c-2.32-5.73-3.48-12.39-3.48-19.96,0-9.95,1.83-18.29,5.49-25,3.66-6.71,8.67-12.17,15.01-16.39,6.34-4.22,13.76-7.25,22.25-9.09,8.48-1.84,17.56-2.76,27.21-2.76h17.69v-6.49c0-3.9-.63-7.79-1.88-11.69-1.25-3.9-3.13-7.41-5.63-10.55-2.5-3.13-5.63-5.62-9.38-7.47-3.75-1.84-8.22-2.76-13.4-2.76-4.65,0-8.71.54-12.2,1.62-3.48,1.09-6.66,2.44-9.52,4.06-2.86,1.62-5.45,3.52-7.77,5.68-2.32,2.17-4.56,4.22-6.7,6.17l-14.47-18.18ZM907.67,156.74c-5.72,0-11.57.38-17.56,1.14-5.99.76-11.44,2.22-16.35,4.38-4.92,2.17-8.94,5.19-12.06,9.09-3.13,3.9-4.69,8.88-4.69,14.93,0,8.88,2.45,15.26,7.37,19.15,4.91,3.9,11.57,5.84,19.97,5.84,6.61,0,12.24-1.35,16.89-4.06,4.64-2.7,8.4-6.22,11.26-10.55,2.86-4.33,4.91-9.14,6.16-14.45,1.25-5.3,1.88-10.55,1.88-15.74v-9.74h-12.87Z"/>
  </g>
</svg>