<?xml version="1.0" encoding="UTF-8" standalone="no"?><!DOCTYPE svg PUBLIC "-//W3C//DTD SVG 1.1//EN" "http://www.w3.org/Graphics/SVG/1.1/DTD/svg11.dtd"><svg width="100%" height="100%" viewBox="0 0 825 825" version="1.1" xmlns="http://www.w3.org/2000/svg" xmlns:xlink="http://www.w3.org/1999/xlink" xml:space="preserve" xmlns:serif="http://www.serif.com/" style="fill-rule:evenodd;clip-rule:evenodd;stroke-linecap:round;stroke-linejoin:round;stroke-miterlimit:1.5;"><g><g><path d="M413.39,790.884l0,-756.769" style="fill:none;stroke:#1f211f;stroke-width:2.76px;"/></g><g><path d="M791.773,412.498l-756.769,0" style="fill:none;stroke:#1f211f;stroke-width:2.76px;"/></g><g><path d="M315.458,777.992l195.866,-730.984" style="fill:none;stroke:#1f211f;stroke-width:2.76px;"/></g><g><path d="M778.881,510.431l-730.984,-195.866" style="fill:none;stroke:#1f211f;stroke-width:2.76px;"/></g><g><path d="M224.197,740.192l378.385,-655.382" style="fill:none;stroke:#1f211f;stroke-width:2.76px;"/></g><g><path d="M741.08,601.691l-655.382,-378.385" style="fill:none;stroke:#1f211f;stroke-width:2.76px;"/></g><g><path d="M145.831,680.06l535.117,-535.117" style="fill:none;stroke:#1f211f;stroke-width:2.76px;"/></g><g><path d="M680.948,680.057l-535.117,-535.117" style="fill:none;stroke:#1f211f;stroke-width:2.76px;"/></g><g><path d="M85.699,601.694l655.382,-378.385" style="fill:none;stroke:#1f211f;stroke-width:2.76px;"/></g><g><path d="M602.583,740.19l-378.385,-655.382" style="fill:none;stroke:#1f211f;stroke-width:2.76px;"/></g><g><path d="M47.898,510.435l730.983,-195.867" style="fill:none;stroke:#1f211f;stroke-width:2.76px;"/></g><g><path d="M511.324,777.991l-195.867,-730.983" style="fill:none;stroke:#1f211f;stroke-width:2.76px;"/></g><g><path d="M35.004,412.501l756.769,0" style="fill:none;stroke:#1f211f;stroke-width:2.76px;"/></g><g><path d="M413.391,790.884l0,-756.769" style="fill:none;stroke:#1f211f;stroke-width:2.76px;"/></g><g><path d="M47.897,314.568l730.983,195.866" style="fill:none;stroke:#1f211f;stroke-width:2.76px;"/></g><g><path d="M315.458,777.991l195.866,-730.983" style="fill:none;stroke:#1f211f;stroke-width:2.76px;"/></g><path d="M412.503,819.017c-224.628,0 -406.715,-182.023 -406.715,-406.556c0,-218.253 172.014,-396.318 387.9,-406.137l0,17.563c-25.506,1.218 -50.383,4.89 -74.36,10.77c-0.684,0.171 -1.349,0.343 -2.033,0.514c-22.61,5.689 -44.465,13.358 -65.313,22.815c-0.647,0.285 -1.259,0.571 -1.907,0.856c-23.294,10.713 -45.365,23.671 -65.924,38.57c-0.558,0.419 -1.115,0.818 -1.673,1.237c-19.768,14.499 -38.097,30.826 -54.772,48.712c-0.486,0.514 -0.953,1.009 -1.421,1.522c-17.196,18.648 -32.575,38.97 -45.904,60.719c-0.36,0.59 -0.719,1.18 -1.079,1.77c-11.818,19.523 -21.963,40.168 -30.237,61.727c-0.252,0.647 -0.504,1.313 -0.737,1.96c-16.153,42.718 -24.984,89.014 -24.984,137.402c0,22.016 1.835,43.632 5.36,64.658c1.331,7.954 2.896,15.831 4.713,23.595c0.144,0.685 0.306,1.37 0.468,2.036c5.36,22.548 12.681,44.317 21.783,65.171c0.27,0.628 0.558,1.256 0.845,1.903c10.343,23.348 22.934,45.515 37.468,66.18c0.414,0.571 0.791,1.123 1.205,1.694c14.192,19.942 30.237,38.513 47.847,55.429c0.504,0.476 1.007,0.951 1.511,1.427c18.437,17.506 38.583,33.223 60.168,46.885c0.594,0.362 1.187,0.742 1.763,1.104c19.462,12.159 40.076,22.643 61.625,31.263c0.647,0.266 1.295,0.514 1.925,0.761c23.546,9.267 48.207,16.307 73.713,20.855c0.683,0.114 1.367,0.228 2.051,0.362c21.675,3.73 43.961,5.689 66.716,5.689c214.915,0 389.124,-174.165 389.124,-389.012c0,-20.151 -1.529,-39.94 -4.479,-59.254c-28.096,-183.869 -184.983,-325.381 -375.741,-329.663l0,-17.563c220.509,4.738 397.794,184.897 397.794,406.479c0,224.532 -182.087,406.556 -406.697,406.556Zm379.158,-522.741c53.729,175.249 -49.052,347.72 -49.052,347.72l0.018,-0.019c54.97,-80.489 71.248,-161.892 71.284,-229.993l0,-0.323c-0.018,-30.788 -3.346,-58.835 -7.896,-82.868c-0.09,-0.495 -0.198,-0.989 -0.288,-1.465c-0.036,-0.171 -0.072,-0.362 -0.09,-0.533c-10.037,-51.528 -25.596,-83.971 -25.596,-83.971c-50.742,-99.099 -121.847,-156.278 -186.764,-189.273c-75.763,-41.995 -141.795,-45.059 -159.423,-45.059c-3.004,0 -4.587,0.095 -4.587,0.095l0.036,0c2.032,0.019 77.544,1.066 163.956,44.964l0.018,0c0.018,0.019 0.018,0.019 0.036,0.038c55.653,30.845 116.541,82.734 167.319,169.826c13.635,23.386 23.762,47.152 31.029,70.861Z" style="fill:url(#_Linear1);"/><path d="M412.512,801.464c-22.736,0 -45.041,-1.96 -66.716,-5.689c-0.683,-0.133 -1.367,-0.247 -2.051,-0.362c-25.506,-4.548 -50.167,-11.588 -73.713,-20.855c-0.629,-0.247 -1.277,-0.495 -1.925,-0.761c-21.549,-8.62 -42.163,-19.104 -61.625,-31.263c-0.594,-0.381 -1.169,-0.742 -1.763,-1.104c-21.567,-13.662 -41.731,-29.379 -60.168,-46.885c-0.504,-0.476 -1.007,-0.951 -1.511,-1.427c-17.61,-16.916 -33.655,-35.488 -47.847,-55.429c-0.414,-0.571 -0.792,-1.123 -1.205,-1.694c-14.534,-20.665 -27.125,-42.832 -37.468,-66.18c-0.288,-0.647 -0.576,-1.275 -0.845,-1.903c-9.102,-20.855 -16.422,-42.623 -21.783,-65.171c-0.162,-0.666 -0.324,-1.351 -0.468,-2.036c-1.817,-7.764 -3.382,-15.641 -4.713,-23.595c-3.526,-21.026 -5.36,-42.642 -5.36,-64.658c0,-48.389 8.832,-94.684 24.984,-137.402c0.234,-0.647 0.486,-1.313 0.737,-1.96c8.274,-21.559 18.419,-42.204 30.237,-61.727c0.36,-0.59 0.72,-1.18 1.079,-1.77c13.329,-21.749 28.708,-42.071 45.904,-60.719c0.468,-0.514 0.935,-1.009 1.421,-1.522c16.674,-17.886 35.004,-34.213 54.772,-48.712c0.557,-0.419 1.115,-0.818 1.673,-1.237c20.56,-14.899 42.63,-27.857 65.924,-38.57c0.647,-0.285 1.259,-0.571 1.907,-0.856c20.847,-9.457 42.702,-17.125 65.313,-22.815c0.683,-0.171 1.349,-0.342 2.033,-0.514c23.977,-5.88 48.854,-9.552 74.36,-10.77l0,10.504c-24.661,1.199 -48.728,4.776 -71.932,10.466c-0.683,0.171 -1.349,0.342 -2.033,0.514c-21.981,5.537 -43.206,12.996 -63.496,22.187c-0.629,0.285 -1.259,0.571 -1.889,0.875c-22.646,10.408 -44.105,23.005 -64.071,37.505c-0.576,0.419 -1.115,0.818 -1.691,1.237c-19.192,14.1 -37.036,29.969 -53.225,47.361c-0.467,0.514 -0.953,1.027 -1.421,1.522c-16.71,18.153 -31.658,37.904 -44.609,59.044c-0.36,0.59 -0.72,1.18 -1.079,1.77c-11.476,18.971 -21.333,39.046 -29.374,59.996c-0.252,0.647 -0.504,1.313 -0.755,1.96c-8.616,22.815 -15.073,46.657 -19.157,71.318c-0.126,0.685 -0.234,1.37 -0.342,2.055c-3.13,19.618 -4.767,39.75 -4.767,60.262c0,3.52 0.054,7.059 0.144,10.561c0.018,0.704 0.036,1.37 0.054,2.074c0.827,25.079 4.101,49.568 9.587,73.201c0.144,0.666 0.306,1.332 0.468,2.017c5.217,21.901 12.321,43.099 21.171,63.345c0.27,0.628 0.54,1.256 0.828,1.903c10.055,22.701 22.305,44.259 36.425,64.334c0.396,0.59 0.792,1.123 1.187,1.694c13.796,19.39 29.391,37.447 46.516,53.888c0.504,0.476 0.989,0.951 1.511,1.427c17.916,17.03 37.504,32.31 58.477,45.591c0.594,0.362 1.169,0.742 1.763,1.104c18.905,11.836 38.925,22.035 59.898,30.407c0.629,0.266 1.277,0.514 1.925,0.78c22.88,9 46.84,15.85 71.662,20.284c0.684,0.114 1.349,0.228 2.033,0.362c21.117,3.653 42.846,5.556 65.007,5.556c2.177,0 4.335,-0.019 6.511,-0.057c0.702,-0.019 1.403,-0.038 2.105,-0.038c25.417,-0.571 50.257,-3.653 74.234,-9c0.683,-0.152 1.349,-0.304 2.033,-0.457c22.269,-5.1 43.818,-12.178 64.413,-21.026c0.648,-0.266 1.277,-0.552 1.906,-0.818c23.132,-10.085 45.059,-22.415 65.51,-36.705c0.576,-0.4 1.134,-0.799 1.709,-1.199c19.751,-13.967 38.098,-29.76 54.808,-47.171c0.468,-0.495 0.953,-1.009 1.439,-1.503c17.286,-18.21 32.773,-38.132 46.192,-59.501c0.378,-0.571 0.738,-1.161 1.097,-1.751c11.944,-19.237 22.214,-39.617 30.597,-60.947c0.252,-0.647 0.504,-1.294 0.756,-1.941c8.976,-23.233 15.739,-47.551 20.002,-72.764c0.108,-0.685 0.234,-1.37 0.341,-2.055c3.292,-20.056 5.001,-40.625 5.001,-61.594c0,-3.615 -0.054,-7.231 -0.162,-10.827c-0.018,-0.685 -0.036,-1.389 -0.054,-2.074c-0.863,-25.669 -4.281,-50.691 -10.001,-74.819c-0.162,-0.666 -0.324,-1.351 -0.486,-2.017c-5.45,-22.358 -12.879,-43.955 -22.089,-64.543c-0.27,-0.647 -0.558,-1.275 -0.845,-1.903c-10.469,-23.062 -23.186,-44.887 -37.846,-65.21c-0.414,-0.552 -0.81,-1.123 -1.224,-1.675c-14.282,-19.561 -30.398,-37.676 -48.08,-54.135c-0.504,-0.457 -1.025,-0.932 -1.529,-1.408c-18.437,-16.954 -38.547,-32.1 -60.078,-45.173c-0.593,-0.362 -1.187,-0.723 -1.781,-1.066c-19.319,-11.588 -39.752,-21.502 -61.121,-29.532c-0.63,-0.247 -1.277,-0.495 -1.943,-0.723c-23.186,-8.582 -47.415,-14.956 -72.49,-18.876c-0.666,-0.114 -1.349,-0.209 -2.051,-0.323c-15.703,-2.36 -31.694,-3.749 -47.973,-4.129l0,-10.485c190.757,4.281 347.645,145.794 375.741,329.663c2.95,19.314 4.479,39.103 4.479,59.254c0,214.847 -174.209,389.012 -389.124,389.012Z" style="fill:url(#_Linear2);"/><path d="M615.77,60.404c194.533,112.314 261.214,360.994 148.948,555.445c-109.126,189.013 -347.128,257.215 -539,157.775l8.781,-15.21c22.698,11.698 46.078,20.956 69.783,27.853c0.678,0.193 1.34,0.378 2.017,0.571c22.426,6.378 45.187,10.664 67.97,12.898c0.703,0.077 1.376,0.135 2.079,0.212c25.529,2.369 51.122,2.183 76.377,-0.441c0.692,-0.084 1.375,-0.151 2.067,-0.235c24.37,-2.673 48.406,-7.647 71.79,-14.8c0.678,-0.202 1.33,-0.397 1.992,-0.608c24.216,-7.551 47.696,-17.461 70.114,-29.632c0.606,-0.331 1.213,-0.662 1.819,-0.993c19.996,-10.998 39.104,-23.806 57.05,-38.339c0.541,-0.434 1.093,-0.885 1.619,-1.329c35.348,-28.919 66.144,-64.596 90.338,-106.502c11.008,-19.066 20.227,-38.703 27.687,-58.675c2.824,-7.554 5.408,-15.158 7.716,-22.79c0.218,-0.665 0.42,-1.339 0.613,-1.997c6.632,-22.208 11.176,-44.72 13.721,-67.332c0.08,-0.679 0.145,-1.366 0.219,-2.071c2.717,-25.391 2.896,-50.885 0.642,-76.048c-0.073,-0.701 -0.124,-1.368 -0.197,-2.069c-2.32,-24.366 -6.93,-48.472 -13.722,-71.926c-0.198,-0.664 -0.397,-1.328 -0.595,-1.991c-7.214,-24.379 -16.803,-48.064 -28.665,-70.688c-0.333,-0.61 -0.657,-1.236 -0.975,-1.837c-10.776,-20.261 -23.385,-39.648 -37.737,-57.887c-0.428,-0.554 -0.865,-1.093 -1.286,-1.621c-15.758,-19.798 -33.595,-38.226 -53.41,-54.917c-0.535,-0.441 -1.07,-0.881 -1.595,-1.338c-16.906,-14.067 -35.227,-26.908 -54.933,-38.285c-186.122,-107.457 -424.073,-43.731 -531.497,142.332c-10.075,17.451 -18.646,35.354 -25.748,53.555c-67.603,173.283 -2.49,374.28 160.57,473.367l-8.781,15.21c-188.597,-114.358 -252.051,-359.022 -141.26,-550.918c112.266,-194.451 360.97,-261.044 555.488,-148.739Zm-589.732,263.128c41.094,-178.635 216.34,-276.609 216.34,-276.609l-0.025,0.007c-87.85,42.221 -142.649,104.578 -176.731,163.538c-0.057,0.099 -0.105,0.181 -0.162,0.28c-15.378,26.672 -26.52,52.626 -34.595,75.714c-0.169,0.473 -0.324,0.956 -0.483,1.413c-0.054,0.166 -0.119,0.349 -0.188,0.506c-17.072,49.643 -19.819,85.519 -19.819,85.519c-5.605,111.193 27.384,196.264 67.106,257.297c44.616,74.251 100.269,109.92 115.535,118.734c2.601,1.502 4.02,2.211 4.02,2.211c0,0 -0.015,-0.009 -0.031,-0.018c-1.751,-1.033 -66.622,-39.695 -119.508,-120.917l-0.016,-0.009c-0.006,-0.026 -0.006,-0.026 -0.012,-0.051c-32.775,-54.539 -59.56,-129.92 -59.99,-230.733c-0.115,-27.07 2.998,-52.716 8.559,-76.882Z" style="fill:url(#_Linear3);"/><path d="M606.997,75.601c19.69,11.368 38.026,24.218 54.933,38.285c0.525,0.457 1.06,0.898 1.595,1.338c19.815,16.692 37.652,35.119 53.41,54.917c0.421,0.529 0.859,1.067 1.286,1.621c14.352,18.239 26.962,37.626 37.737,57.887c0.324,0.626 0.642,1.227 0.975,1.837c11.846,22.615 21.45,46.309 28.665,70.688c0.198,0.664 0.397,1.328 0.595,1.991c6.792,23.454 11.402,47.56 13.722,71.926c0.073,0.701 0.124,1.368 0.197,2.069c2.254,25.163 2.075,50.657 -0.642,76.048c-0.074,0.704 -0.139,1.392 -0.219,2.071c-2.545,22.612 -7.089,45.124 -13.721,67.332c-0.193,0.658 -0.395,1.332 -0.613,1.997c-2.308,7.632 -4.892,15.236 -7.716,22.79c-7.46,19.972 -16.679,39.609 -27.687,58.675c-24.194,41.906 -54.991,77.583 -90.338,106.502c-0.526,0.443 -1.077,0.894 -1.619,1.329c-17.945,14.533 -37.054,27.341 -57.05,38.339c-0.607,0.331 -1.213,0.662 -1.819,0.993c-22.418,12.171 -45.898,22.081 -70.114,29.632c-0.662,0.211 -1.314,0.406 -1.992,0.608c-23.384,7.153 -47.42,12.127 -71.79,14.8c-0.692,0.084 -1.375,0.151 -2.067,0.235c-25.255,2.623 -50.848,2.81 -76.377,0.441c-0.703,-0.077 -1.376,-0.135 -2.079,-0.212c-22.783,-2.234 -45.544,-6.52 -67.97,-12.898c-0.677,-0.193 -1.34,-0.378 -2.017,-0.571c-23.705,-6.897 -47.085,-16.155 -69.783,-27.853l5.252,-9.096c21.956,11.292 44.588,20.228 67.528,26.903c0.677,0.193 1.34,0.378 2.017,0.571c21.804,6.195 43.915,10.348 66.082,12.534c0.688,0.067 1.376,0.135 2.073,0.186c24.816,2.309 49.699,2.13 74.24,-0.444c0.708,-0.075 1.375,-0.151 2.083,-0.226c23.671,-2.615 47.059,-7.436 69.775,-14.403c0.662,-0.211 1.339,-0.413 1.992,-0.608c23.548,-7.366 46.369,-16.997 68.155,-28.829c0.607,-0.331 1.213,-0.662 1.819,-0.993c19.424,-10.691 37.998,-23.148 55.436,-37.271c0.541,-0.434 1.093,-0.885 1.634,-1.32c18.869,-15.45 36.383,-32.869 52.249,-52.184c0.452,-0.53 0.888,-1.07 1.323,-1.609c12.519,-15.425 24.003,-32.041 34.259,-49.805c1.76,-3.049 3.483,-6.141 5.156,-9.218c0.336,-0.619 0.654,-1.204 0.99,-1.823c11.823,-22.133 21.233,-44.978 28.298,-68.188c0.208,-0.649 0.401,-1.307 0.603,-1.981c6.433,-21.575 10.879,-43.485 13.337,-65.444c0.08,-0.679 0.161,-1.357 0.235,-2.062c2.643,-24.687 2.813,-49.482 0.622,-73.927c-0.048,-0.709 -0.124,-1.368 -0.182,-2.06c-2.253,-23.69 -6.73,-47.126 -13.34,-69.926c-0.198,-0.664 -0.381,-1.319 -0.595,-1.991c-7,-23.706 -16.324,-46.733 -27.847,-68.722c-0.333,-0.61 -0.642,-1.227 -0.975,-1.837c-10.454,-19.702 -22.693,-38.545 -36.67,-56.282c-0.412,-0.545 -0.849,-1.083 -1.277,-1.638c-15.315,-19.235 -32.639,-37.147 -51.919,-53.398c-0.535,-0.441 -1.054,-0.872 -1.58,-1.329c-16.461,-13.723 -34.328,-26.235 -53.519,-37.315c-1.885,-1.088 -3.764,-2.151 -5.668,-3.206c-0.617,-0.334 -1.234,-0.669 -1.842,-1.019c-22.297,-12.214 -45.35,-21.965 -68.789,-29.323c-0.668,-0.21 -1.321,-0.411 -1.989,-0.621c-21.835,-6.718 -44.036,-11.362 -66.296,-13.997c-0.694,-0.093 -1.382,-0.161 -2.06,-0.245c-25.075,-2.832 -50.23,-3.117 -75.086,-0.967c-0.698,0.058 -1.381,0.125 -2.079,0.184c-24.088,2.22 -47.874,6.724 -71.05,13.447c-0.652,0.195 -1.33,0.397 -1.998,0.582c-24.075,7.127 -47.449,16.637 -69.754,28.434c-0.612,0.306 -1.219,0.636 -1.826,0.967c-19.962,10.688 -39.046,23.202 -56.971,37.484c-0.542,0.434 -1.083,0.869 -1.625,1.303c-19.39,15.633 -37.406,33.311 -53.704,53.014c-0.436,0.539 -0.888,1.07 -1.323,1.609c-12.879,15.723 -24.643,32.682 -35.128,50.842c-1.808,3.131 -3.568,6.289 -5.273,9.457c-0.327,0.602 -0.663,1.221 -0.99,1.823c-12.087,22.662 -21.638,46.04 -28.748,69.795c-0.193,0.658 -0.395,1.332 -0.588,1.99c-6.459,22.088 -10.824,44.506 -13.142,66.941c-0.09,0.695 -0.154,1.383 -0.219,2.071c-2.465,25.207 -2.364,50.467 0.171,75.396c0.083,0.685 0.14,1.377 0.222,2.062c2.588,24.081 7.488,47.827 14.571,70.922c0.208,0.647 0.422,1.32 0.62,1.984c7.49,23.901 17.332,47.073 29.443,69.16c0.333,0.61 0.666,1.22 1.009,1.813c10.936,19.695 23.676,38.497 38.167,56.136c0.422,0.529 0.859,1.067 1.321,1.598c15.789,19.025 33.585,36.66 53.34,52.592c0.52,0.432 1.064,0.856 1.614,1.306c12.419,9.895 25.573,19.093 39.481,27.562l-5.242,9.08c-163.06,-99.086 -228.172,-300.083 -160.57,-473.367c7.102,-18.201 15.672,-36.104 25.748,-53.555c107.423,-186.063 345.375,-249.789 531.497,-142.332Z" style="fill:url(#_Linear4);"/></g><defs><linearGradient id="_Linear1" x1="0" y1="0" x2="1" y2="0.056" gradientUnits="userSpaceOnUse" gradientTransform="matrix(714.319549,889.162761,840.534245,-755.646003,82.396788,823.338584)"><stop offset="0" style="stop-color:#1f211f;stop-opacity:1"/><stop offset="0.43" style="stop-color:#1f2220;stop-opacity:1"/><stop offset="0.63" style="stop-color:#30312f;stop-opacity:1"/><stop offset="0.83" style="stop-color:#555553;stop-opacity:1"/><stop offset="0.91" style="stop-color:#6b6c6b;stop-opacity:1"/><stop offset="1" style="stop-color:#8a8c8b;stop-opacity:1"/></linearGradient><linearGradient id="_Linear2" x1="0" y1="0" x2="1" y2="0.055" gradientUnits="userSpaceOnUse" gradientTransform="matrix(-508.839358,-699.760319,-661.490266,538.2779,621.221232,125.416564)"><stop offset="0" style="stop-color:#1f211f;stop-opacity:1"/><stop offset="0.43" style="stop-color:#1f2220;stop-opacity:1"/><stop offset="0.63" style="stop-color:#30312f;stop-opacity:1"/><stop offset="0.83" style="stop-color:#555553;stop-opacity:1"/><stop offset="0.91" style="stop-color:#6b6c6b;stop-opacity:1"/><stop offset="1" style="stop-color:#8a8c8b;stop-opacity:1"/></linearGradient><linearGradient id="_Linear3" x1="0" y1="0" x2="1" y2="0.056" gradientUnits="userSpaceOnUse" gradientTransform="matrix(-174.037496,-1127.197313,-1105.74701,234.141513,903.810808,221.71475)"><stop offset="0" style="stop-color:#1f211f;stop-opacity:1"/><stop offset="0.43" style="stop-color:#1f2220;stop-opacity:1"/><stop offset="0.63" style="stop-color:#30312f;stop-opacity:1"/><stop offset="0.83" style="stop-color:#555553;stop-opacity:1"/><stop offset="0.91" style="stop-color:#6b6c6b;stop-opacity:1"/><stop offset="1" style="stop-color:#8a8c8b;stop-opacity:1"/></linearGradient><linearGradient id="_Linear4" x1="0" y1="0" x2="1" y2="0.055" gradientUnits="userSpaceOnUse" gradientTransform="matrix(90.787651,860.429891,842.006324,-135.417203,88.226489,556.721041)"><stop offset="0" style="stop-color:#1f211f;stop-opacity:1"/><stop offset="0.43" style="stop-color:#1f2220;stop-opacity:1"/><stop offset="0.63" style="stop-color:#30312f;stop-opacity:1"/><stop offset="0.83" style="stop-color:#555553;stop-opacity:1"/><stop offset="0.91" style="stop-color:#6b6c6b;stop-opacity:1"/><stop offset="1" style="stop-color:#8a8c8b;stop-opacity:1"/></linearGradient></defs></svg>