<?xml version="1.0" encoding="UTF-8"?>
<svg id="Layer_1" xmlns="http://www.w3.org/2000/svg" xmlns:serif="http://www.serif.com/" version="1.1" viewBox="0 0 1128.49 1080">
  <!-- Generator: Adobe Illustrator 30.3.0, SVG Export Plug-In . SVG Version: 2.1.3 Build 182)  -->
  <defs>
    <style>
      .st0 {
        fill: #c9b09b;
        fill-rule: evenodd;
      }

      .st1 {
        fill: none;
        stroke: #c9b09b;
        stroke-miterlimit: 10;
        stroke-width: 10px;
      }

      .st2 {
        fill: #2d2d2d;
      }
    </style>
  </defs>
  <ellipse class="st2" cx="566.71" cy="544.99" rx="524.26" ry="519.65"/>
  <g>
    <path class="st1" d="M565.42,1035.34V44.66"/>
    <path class="st1" d="M1060.76,540H70.08"/>
    <path class="st1" d="M437.22,1018.46L693.62,61.54"/>
    <path class="st1" d="M1043.88,668.2L86.95,411.79"/>
    <path class="st1" d="M317.75,968.98L813.09,111.02"/>
    <path class="st1" d="M994.39,787.67L136.44,292.33"/>
    <path class="st1" d="M215.16,890.26L915.68,189.74"/>
    <path class="st1" d="M915.68,890.26L215.16,189.74"/>
    <path class="st1" d="M136.44,787.67l857.95-495.34"/>
    <path class="st1" d="M813.09,968.98L317.75,111.02"/>
    <path class="st1" d="M86.96,668.21l956.92-256.41"/>
    <path class="st1" d="M693.62,1018.46L437.21,61.54"/>
    <path class="st1" d="M70.08,540h990.68"/>
    <path class="st1" d="M565.42,1035.34V44.66"/>
    <path class="st1" d="M86.95,411.8l956.92,256.41"/>
    <path class="st1" d="M437.22,1018.46L693.62,61.54"/>
    <path class="st0" d="M564.26,1072.17c-294.06,0-532.43-238.28-532.43-532.22S257.01,21.13,539.63,8.28v22.99c-33.39,1.59-65.96,6.4-97.34,14.1-.9.22-1.77.45-2.66.67-29.6,7.45-58.21,17.49-85.5,29.87-.85.37-1.65.75-2.5,1.12-30.49,14.02-59.39,30.99-86.3,50.49-.73.55-1.46,1.07-2.19,1.62-25.88,18.98-49.87,40.35-71.7,63.77-.64.67-1.25,1.32-1.86,1.99-22.51,24.41-42.64,51.02-60.09,79.49-.47.77-.94,1.54-1.41,2.32-15.47,25.56-28.75,52.58-39.58,80.81-.33.85-.66,1.72-.96,2.57-21.15,55.92-32.71,116.53-32.71,179.87,0,28.82,2.4,57.12,7.02,84.64,1.74,10.41,3.79,20.72,6.17,30.89.19.9.4,1.79.61,2.67,7.02,29.52,16.6,58.02,28.52,85.31.35.82.73,1.64,1.11,2.49,13.54,30.56,30.02,59.58,49.05,86.64.54.75,1.04,1.47,1.58,2.22,18.58,26.11,39.58,50.42,62.64,72.56.66.62,1.32,1.24,1.98,1.87,24.14,22.92,50.51,43.49,78.77,61.38.78.47,1.55.97,2.31,1.45,25.48,15.92,52.46,29.64,80.67,40.93.85.35,1.7.67,2.52,1,30.82,12.13,63.11,21.35,96.5,27.3.89.15,1.79.3,2.68.47,28.37,4.88,57.55,7.45,87.34,7.45,281.34,0,509.4-228,509.4-509.25,0-26.38-2-52.29-5.86-77.57-36.78-240.7-242.16-425.95-491.88-431.56V7.83c288.67,6.2,520.75,242.05,520.75,532.12s-238.37,532.22-532.4,532.22h0ZM1060.61,387.85c70.34,229.42-64.21,455.2-64.21,455.2l.02-.02c71.96-105.37,93.27-211.93,93.32-301.08v-.42c-.02-40.3-4.38-77.02-10.34-108.48-.12-.65-.26-1.29-.38-1.92-.05-.22-.09-.47-.12-.7-13.14-67.45-33.51-109.93-33.51-109.93-66.43-129.73-159.51-204.58-244.49-247.78-99.18-54.98-185.62-58.99-208.7-58.99-3.93,0-6,.12-6,.12h.05c2.66.02,101.51,1.4,214.63,58.86h.02s.02.02.05.05c72.85,40.38,152.56,108.31,219.04,222.32,17.85,30.61,31.11,61.73,40.62,92.76h0Z"/>
    <path class="st0" d="M564.27,1049.19c-29.76,0-58.96-2.57-87.34-7.45-.89-.17-1.79-.32-2.68-.47-33.39-5.95-65.67-15.17-96.5-27.3-.82-.32-1.67-.65-2.52-1-28.21-11.28-55.2-25.01-80.67-40.93-.78-.5-1.53-.97-2.31-1.45-28.23-17.88-54.63-38.46-78.77-61.38-.66-.62-1.32-1.24-1.98-1.87-23.05-22.14-44.06-46.46-62.64-72.56-.54-.75-1.04-1.47-1.58-2.22-19.03-27.05-35.51-56.07-49.05-86.64-.38-.85-.75-1.67-1.11-2.49-11.92-27.3-21.5-55.8-28.52-85.31-.21-.87-.42-1.77-.61-2.67-2.38-10.16-4.43-20.48-6.17-30.89-4.62-27.52-7.02-55.82-7.02-84.64,0-63.35,11.56-123.95,32.71-179.87.31-.85.64-1.72.96-2.57,10.83-28.22,24.11-55.25,39.58-80.81.47-.77.94-1.54,1.41-2.32,17.45-28.47,37.58-55.07,60.09-79.49.61-.67,1.22-1.32,1.86-1.99,21.83-23.41,45.82-44.79,71.7-63.77.73-.55,1.46-1.07,2.19-1.62,26.91-19.5,55.81-36.47,86.3-50.49.85-.37,1.65-.75,2.5-1.12,27.29-12.38,55.9-22.42,85.5-29.87.89-.22,1.77-.45,2.66-.67,31.39-7.7,63.95-12.5,97.34-14.1v13.75c-32.28,1.57-63.79,6.25-94.17,13.7-.89.22-1.77.45-2.66.67-28.78,7.25-56.56,17.01-83.12,29.04-.82.37-1.65.75-2.47,1.15-29.65,13.63-57.74,30.12-83.87,49.1-.75.55-1.46,1.07-2.21,1.62-25.12,18.46-48.48,39.23-69.68,62-.61.67-1.25,1.34-1.86,1.99-21.87,23.76-41.44,49.62-58.4,77.29-.47.77-.94,1.54-1.41,2.32-15.02,24.83-27.93,51.11-38.45,78.54-.33.85-.66,1.72-.99,2.57-11.28,29.87-19.73,61.08-25.08,93.36-.16.9-.31,1.79-.45,2.69-4.1,25.68-6.24,52.04-6.24,78.89,0,4.61.07,9.24.19,13.83.02.92.05,1.79.07,2.72,1.08,32.83,5.37,64.89,12.55,95.83.19.87.4,1.74.61,2.64,6.83,28.67,16.13,56.42,27.71,82.92.35.82.71,1.64,1.08,2.49,13.16,29.72,29.2,57.94,47.68,84.22.52.77,1.04,1.47,1.55,2.22,18.06,25.38,38.48,49.02,60.89,70.54.66.62,1.29,1.24,1.98,1.87,23.45,22.29,49.1,42.3,76.55,59.68.78.47,1.53.97,2.31,1.45,24.75,15.49,50.96,28.85,78.41,39.81.82.35,1.67.67,2.52,1.02,29.95,11.78,61.32,20.75,93.81,26.55.9.15,1.77.3,2.66.47,27.64,4.78,56.09,7.27,85.1,7.27,2.85,0,5.67-.02,8.52-.07.92-.02,1.84-.05,2.76-.05,33.27-.75,65.79-4.78,97.18-11.78.89-.2,1.77-.4,2.66-.6,29.15-6.68,57.36-15.94,84.32-27.52.85-.35,1.67-.72,2.5-1.07,30.28-13.2,58.99-29.34,85.76-48.05.75-.52,1.48-1.05,2.24-1.57,25.86-18.28,49.87-38.96,71.75-61.75.61-.65,1.25-1.32,1.88-1.97,22.63-23.84,42.9-49.92,60.47-77.89.49-.75.97-1.52,1.44-2.29,15.64-25.18,29.08-51.86,40.05-79.79.33-.85.66-1.69.99-2.54,11.75-30.41,20.6-62.25,26.18-95.25.14-.9.31-1.79.45-2.69,4.31-26.26,6.55-53.18,6.55-80.63,0-4.73-.07-9.47-.21-14.17-.02-.9-.05-1.82-.07-2.72-1.13-33.6-5.6-66.36-13.09-97.94-.21-.87-.42-1.77-.64-2.64-7.13-29.27-16.86-57.54-28.92-84.49-.35-.85-.73-1.67-1.11-2.49-13.7-30.19-30.35-58.76-49.54-85.37-.54-.72-1.06-1.47-1.6-2.19-18.7-25.61-39.79-49.32-62.94-70.87-.66-.6-1.34-1.22-2-1.84-24.14-22.19-50.46-42.02-78.65-59.14-.78-.47-1.55-.95-2.33-1.4-25.29-15.17-52.04-28.15-80.01-38.66-.82-.32-1.67-.65-2.54-.95-30.35-11.23-62.07-19.58-94.9-24.71-.87-.15-1.77-.27-2.68-.42-20.56-3.09-41.49-4.91-62.8-5.41v-13.73c249.72,5.6,455.1,190.86,491.88,431.56,3.86,25.28,5.86,51.19,5.86,77.57,0,281.25-228.06,509.25-509.4,509.25h0Z"/>
    <path class="st0" d="M830.35,79.07c254.66,147.03,341.95,472.57,194.99,727.13-142.86,247.44-454.42,336.72-705.6,206.54l11.5-19.91c29.71,15.31,60.32,27.43,91.35,36.46.89.25,1.75.49,2.64.75,29.36,8.35,59.15,13.96,88.98,16.88.92.1,1.8.18,2.72.28,33.42,3.1,66.92,2.86,99.98-.58.91-.11,1.8-.2,2.71-.31,31.9-3.5,63.37-10.01,93.98-19.37.89-.26,1.74-.52,2.61-.8,31.7-9.88,62.44-22.86,91.79-38.79.79-.43,1.59-.87,2.38-1.3,26.18-14.4,51.19-31.16,74.68-50.19.71-.57,1.43-1.16,2.12-1.74,46.27-37.86,86.59-84.56,118.26-139.42,14.41-24.96,26.48-50.67,36.24-76.81,3.7-9.89,7.08-19.84,10.1-29.83.29-.87.55-1.75.8-2.61,8.68-29.07,14.63-58.54,17.96-88.14.1-.89.19-1.79.29-2.71,3.56-33.24,3.79-66.61.84-99.55-.1-.92-.16-1.79-.26-2.71-3.04-31.9-9.07-63.45-17.96-94.16-.26-.87-.52-1.74-.78-2.61-9.44-31.91-22-62.92-37.53-92.54-.44-.8-.86-1.62-1.28-2.4-14.11-26.52-30.61-51.9-49.4-75.78-.56-.73-1.13-1.43-1.68-2.12-20.63-25.92-43.98-50.04-69.92-71.89-.7-.58-1.4-1.15-2.09-1.75-22.13-18.41-46.12-35.23-71.91-50.12C575.22-41.71,263.72,41.72,123.09,285.29c-13.19,22.84-24.41,46.28-33.71,70.11-88.5,226.84-3.26,489.97,210.2,619.68l-11.5,19.91C41.2,845.28-41.87,525,103.17,273.79,250.13,19.23,575.71-67.94,830.35,79.07h0ZM58.34,423.53C112.13,189.68,341.55,61.43,341.55,61.43h-.03c-115,55.28-186.74,136.91-231.36,214.1-.07.13-.14.24-.21.37-20.13,34.92-34.72,68.89-45.29,99.12-.22.62-.42,1.25-.63,1.85-.07.22-.16.46-.25.66-22.35,64.99-25.94,111.95-25.94,111.95-7.34,145.56,35.85,256.93,87.85,336.83,58.41,97.2,131.26,143.9,151.25,155.43,3.4,1.97,5.26,2.89,5.26,2.89,0,0-.02-.01-.04-.02-2.29-1.35-87.21-51.96-156.45-158.29h-.02s0-.05-.02-.08c-42.91-71.4-77.97-170.08-78.53-302.05-.15-35.44,3.92-69.01,11.2-100.65h0Z"/>
    <path class="st0" d="M818.87,98.97c25.78,14.88,49.78,31.7,71.91,50.12.69.6,1.39,1.18,2.09,1.75,25.94,21.85,49.29,45.97,69.92,71.89.55.69,1.12,1.4,1.68,2.12,18.79,23.88,35.3,49.26,49.4,75.78.42.82.84,1.61,1.28,2.4,15.51,29.61,28.08,60.62,37.53,92.54.26.87.52,1.74.78,2.61,8.89,30.7,14.93,62.26,17.96,94.16.1.92.16,1.79.26,2.71,2.95,32.94,2.72,66.31-.84,99.55-.1.92-.18,1.82-.29,2.71-3.33,29.6-9.28,59.07-17.96,88.14-.25.86-.52,1.74-.8,2.61-3.02,9.99-6.4,19.95-10.1,29.83-9.77,26.15-21.83,51.85-36.24,76.81-31.67,54.86-71.99,101.56-118.26,139.42-.69.58-1.41,1.17-2.12,1.74-23.49,19.03-48.51,35.79-74.68,50.19-.79.43-1.59.87-2.38,1.3-29.35,15.93-60.08,28.91-91.79,38.79-.87.28-1.72.53-2.61.8-30.61,9.36-62.08,15.88-93.98,19.37-.91.11-1.8.2-2.71.31-33.06,3.43-66.56,3.68-99.98.58-.92-.1-1.8-.18-2.72-.28-29.83-2.92-59.62-8.54-88.98-16.88-.89-.25-1.75-.49-2.64-.75-31.03-9.03-61.64-21.15-91.35-36.46l6.88-11.91c28.74,14.78,58.37,26.48,88.4,35.22.89.25,1.75.49,2.64.75,28.54,8.11,57.49,13.55,86.51,16.41.9.09,1.8.18,2.71.24,32.49,3.02,65.06,2.79,97.19-.58.93-.1,1.8-.2,2.73-.3,30.99-3.42,61.6-9.73,91.34-18.85.87-.28,1.75-.54,2.61-.8,30.83-9.64,60.7-22.25,89.22-37.74.79-.43,1.59-.87,2.38-1.3,25.43-14,49.74-30.3,72.57-48.79.71-.57,1.43-1.16,2.14-1.73,24.7-20.23,47.63-43.03,68.4-68.31.59-.69,1.16-1.4,1.73-2.11,16.39-20.19,31.42-41.94,44.85-65.2,2.3-3.99,4.56-8.04,6.75-12.07.44-.81.86-1.58,1.3-2.39,15.48-28.97,27.8-58.88,37.04-89.26.27-.85.52-1.71.79-2.59,8.42-28.24,14.24-56.93,17.46-85.67.1-.89.21-1.78.31-2.7,3.46-32.32,3.68-64.78.81-96.78-.06-.93-.16-1.79-.24-2.7-2.95-31.01-8.81-61.69-17.46-91.54-.26-.87-.5-1.73-.78-2.61-9.16-31.03-21.37-61.18-36.45-89.96-.44-.8-.84-1.61-1.28-2.4-13.69-25.79-29.71-50.46-48-73.68-.54-.71-1.11-1.42-1.67-2.14-20.05-25.18-42.73-48.63-67.97-69.9-.7-.58-1.38-1.14-2.07-1.74-21.55-17.96-44.94-34.34-70.06-48.85-2.47-1.42-4.93-2.82-7.42-4.2-.81-.44-1.62-.88-2.41-1.33-29.19-15.99-59.37-28.75-90.05-38.39-.87-.27-1.73-.54-2.6-.81-28.58-8.79-57.65-14.87-86.79-18.32-.91-.12-1.81-.21-2.7-.32-32.83-3.71-65.76-4.08-98.29-1.27-.91.08-1.81.16-2.72.24-31.53,2.91-62.67,8.8-93.01,17.6-.85.26-1.74.52-2.62.76-31.52,9.33-62.12,21.78-91.31,37.22-.8.4-1.6.83-2.39,1.27-26.13,13.99-51.11,30.37-74.58,49.07-.71.57-1.42,1.14-2.13,1.71-25.38,20.47-48.97,43.61-70.3,69.4-.57.71-1.16,1.4-1.73,2.11-16.86,20.58-32.26,42.78-45.99,66.56-2.37,4.1-4.67,8.23-6.9,12.38-.43.79-.87,1.6-1.3,2.39-15.82,29.67-28.33,60.27-37.63,91.37-.25.86-.52,1.74-.77,2.61-8.46,28.92-14.17,58.26-17.2,87.63-.12.91-.2,1.81-.29,2.71-3.23,33-3.09,66.07.22,98.7.11.9.18,1.8.29,2.7,3.39,31.52,9.8,62.61,19.07,92.84.27.85.55,1.73.81,2.6,9.81,31.29,22.69,61.62,38.54,90.54.44.8.87,1.6,1.32,2.37,14.32,25.78,30.99,50.4,49.96,73.49.55.69,1.12,1.4,1.73,2.09,20.67,24.91,43.97,47.99,69.83,68.85.68.57,1.39,1.12,2.11,1.71,16.26,12.95,33.48,24.99,51.68,36.08l-6.86,11.89C86.12,845.38.89,582.25,89.38,355.41c9.3-23.83,20.52-47.26,33.71-70.11C263.72,41.73,575.22-41.7,818.87,98.97h0Z"/>
  </g>
</svg>